<svg xmlns="http://www.w3.org/2000/svg" viewBox="0 0 62.38 69.25"><title>Asset 13</title><path d="M10.69,60.87V56.49H8.89v4a63.46,63.46,0,0,1-6.7-1.93c1.46-5.25,2.41-9.95,6.56-14.6a18.36,18.36,0,0,0,17.32,8.5l-.17-1.79a16.52,16.52,0,0,1-15.85-8,18.36,18.36,0,0,1,1.67-1.39,15.18,15.18,0,0,0,14.54,7.41l-.18-1.79a13.38,13.38,0,0,1-12.87-6.62c.72-.42.66-.37,5-2.56v1.16H20V34.32a6.79,6.79,0,0,0,8.4-.1V39h1.8v-.88c1.55.11,6.16.91,12.79-3.29L40.3,25.47a37.65,37.65,0,0,0,1.57-8.24C41.87,2.52,28.32-4,19.26,2.53,12.05,2.18,6.67,8.75,6.67,17.33a62.88,62.88,0,0,0,1.06,8.58L5.06,34.53A24.19,24.19,0,0,0,13.65,38C3.76,42.92,2,52.69,0,59.67a70.55,70.55,0,0,0,34.78,3.61l-.26-1.78A70,70,0,0,1,10.69,60.87ZM24.16,33.93c-2.69,0-4.06-1.93-6.51-4.5a12.19,12.19,0,0,1-2.92-7.84,29.31,29.31,0,0,0,5.75-7.73c1.61,2.68,5.35,7.53,11.91,8.74.17.37.42,1,.7,1.69-1.15,4.31-2.35,5.06-4.86,7.71A5.63,5.63,0,0,1,24.16,33.93Zm-17-.21L9.58,26a60.61,60.61,0,0,1-1.11-8.68c0-7.1,4.15-13.54,11.32-13,3.28-2.44,5.92-3.3,10.65-2,3.58,1,9.63,5.21,9.63,14.86a36.52,36.52,0,0,1-1.65,8.23L40.9,34c-5.45,3-8.88,2.44-10.68,2.31V32.51c1.92-2,2.74-2.64,3.81-5.31a12.35,12.35,0,0,1,.44,3h1.8a18.82,18.82,0,0,0-1.3-6l0-.05h0A30.74,30.74,0,0,0,33.61,21l-.46-.07c-8.35-1.29-11.92-9.47-12-9.56L20.13,8.83c-.44,1.84-.74,6.44-9,13.65l1.19,1.35c.25-.21.48-.43.72-.64.7,5.3,3.18,7.36,5.17,9.45v3l-1.58.8A21.51,21.51,0,0,1,7.2,33.72ZM35,19l-2.42-.37.28-1.78,2.41.37Zm-11.67-8.2L25,10a12.88,12.88,0,0,0,6.25,6.19l-.68,1.66A14.8,14.8,0,0,1,23.34,10.75Z" fill="#8e49bc"/><path d="M52.54,38.91c-2.21-.13-4.77,1.06-7.64,3.53-4.8-4.15-7.55-3.53-7.55-3.53-9.85,0-13.06,12.36-6.3,18.37,2.66,2.36,11.16,9.65,13.87,12,2.72-2.33,11.21-9.61,13.88-12C65.57,51.25,62.31,38.91,52.54,38.91Zm5.06,17C55,58.22,47.14,65,44.92,66.88,42.7,65,34.81,58.22,32.24,55.93,26.71,51,29.14,40.7,37.41,40.7c2.64-.16,5.58,2.42,7.49,4.16,2.1-1.92,4.71-4.15,7.59-4.15C60.63,40.71,63.17,51,57.6,55.93Z" fill="#8e49bc"/></svg>