<svg xmlns="http://www.w3.org/2000/svg" viewBox="0 0 55.39 65.57"><title>Asset 12</title><path d="M25.06,63.85C11.24,63.85,0,51.86,0,37.11V13.51H14.23V36.17c0,6.43,4.85,11.65,10.83,11.65S35.89,42.6,35.89,36.17V13.51H50.11v23.6C50.11,51.86,38.87,63.85,25.06,63.85Zm12.8-48.36v13H48.13v-13ZM2,15.49v13H12.25v-13ZM48.13,37.11V30.43H37.86v5.74c0,7.16-5.21,13-11.82,13.58v1.7h-2v-1.7c-6.6-.54-11.82-6.42-11.82-13.58V30.43H2v6.68c0,13.3,9.82,24.18,22.09,24.74V59.36h2v2.49C38.31,61.29,48.13,50.41,48.13,37.11ZM5.66,25h2V23.08H9.56v-2H7.64V19.18h-2V21.1H3.74v2H5.66Zm40.41-4.07H39.81v2h6.26Zm-22,35.8h2V54.09h-2Z" fill="#8e49bc"/><path d="M40.88,62.34,42,64c-.83.57-1.7,1.11-2.58,1.6l-1-1.73A27.55,27.55,0,0,0,40.88,62.34Z" fill="#8e49bc"/><path d="M53.41,27.91v9.86A29.94,29.94,0,0,1,43,60.74l1.28,1.51A31.94,31.94,0,0,0,55.39,37.77V27.91Z" fill="#8e49bc"/><rect x="1.87" y="6.15" width="1.98" height="5.27" fill="#8e49bc"/><rect x="10.22" y="6.15" width="1.98" height="5.27" fill="#8e49bc"/><rect x="6.15" width="1.98" height="11.43" fill="#8e49bc"/><rect x="37.78" y="6.15" width="1.98" height="5.27" fill="#8e49bc"/><rect x="46.13" y="6.15" width="1.98" height="5.27" fill="#8e49bc"/><rect x="42.06" width="1.98" height="11.43" fill="#8e49bc"/></svg>