<svg xmlns="http://www.w3.org/2000/svg" viewBox="0 0 28.16 28.17"><title>Asset 14</title><path d="M14.08,28.17A14.09,14.09,0,1,1,24,24,14,14,0,0,1,14.08,28.17Zm0-25.61a11.52,11.52,0,1,0,8.15,3.37A11.48,11.48,0,0,0,14.08,2.56Z" fill="#5822b3"/><path d="M14.19,7.25c2.36,0,3.92,1.14,3.92,3.27,0,3-3,3.23-3,5.76H13.18c0-3.1,2.61-3.15,2.61-5.36,0-1-.73-1.53-1.84-1.53A1.77,1.77,0,0,0,12,11.31l-2,0A3.81,3.81,0,0,1,14.19,7.25Zm1.23,12.26a1.33,1.33,0,1,1-2.65,0,1.33,1.33,0,1,1,2.65,0Z" fill="#5822b3"/></svg>