<svg xmlns="http://www.w3.org/2000/svg" viewBox="0 0 72.19 60.12"><title>Asset 14</title><path d="M72.19,44.94C62.67,53.55,49.17,56,36.33,56,23.3,56,9.49,53.56,0,44.71c2.66-8.79,7.14-10,9.63-11.11V31.8C6.94,29.65,7.3,27.15,7.3,25.48l-1.06.18C5.42,20.84,4.48,17.87,6.6,15A4.68,4.68,0,0,1,9.39,13c3.62-4.17,9.25-3.25,12.25.58,2.86,3.65,1.5,7.25.55,12.08l-1.51-.29c0,2,.35,4.29-2.32,6.44v1.78c2.51,1.14,4.08,1.68,6,3.64,1.41-1,2.14-1.23,5.61-2.81V30.94c-2.86-2.75-2.33-5.27-2.33-10.72l-.41,0,.17-1.73c6.55.64,7.62-4,8.23-5.67L37.08,16c1.68-1.25,1.79-4,1.79-4l.05-1.47,1.27.75c.2.12,4.92,3,4.92,8.22,0,6.79.73,9-3.49,12.39v2.62c3.35,1.51,4.28,1.85,5.91,3,2-2.12,3.68-2.7,6.3-3.9V31.85c-2.68-2.15-2.32-4.46-2.32-6.45L50,25.7l-.88-4.44C46.87,12.33,57.19,6.64,62.74,13A4.68,4.68,0,0,1,65.53,15c2.12,2.92,1.18,5.9.37,10.71l-1-.17c0,1.77.33,4.17-2.33,6.31v1.82C65.06,34.76,69.64,36,72.19,44.94Zm-18-9.57-1,.45,5,3.41,5.05-3.4-1-.46H60.81V33.16a4.87,4.87,0,0,1-5.23,0v2.17Zm6.38-18.14c2.79,1.44,3.93,3.17,4.24,4.59.22-1.27.85-3.76-.66-5.85a2.87,2.87,0,0,0-2.32-1.3c-2.91-4-7.57-3-9.93,0s-1.14,6-.36,9.91V23.48h0l.07-1.75C54.61,21.84,58.28,19.32,60.54,17.23ZM56.18,31.49a3.16,3.16,0,0,0,4,0c3.47-2.78,3-2.47,3-8.77,0-1.56-1.55-2.81-2.36-3.36-1.19,1-4.27,3.35-7.53,4v4.05C53.25,29.42,54.85,30.43,56.18,31.49ZM30.93,36l-2.54,1.16,7.44,5,7.33-5L40.66,36h-.78V33.23a6.32,6.32,0,0,1-7.5-.32l-.65-.52V36Zm2.54-4.4a4.59,4.59,0,0,0,5.76,0c1.63-1.3,4.14-2.89,4.14-5.86V19.47a8,8,0,0,0-3-5.89,5.76,5.76,0,0,1-4.18,4.71L35.62,17a8.31,8.31,0,0,1-6.21,3.24C29.41,28.07,28.79,27.8,33.47,31.55ZM10,35.37l-1,.46L14,39.23l5-3.41-1-.45H16.61V33.2a4.85,4.85,0,0,1-5.23,0v2.21ZM7.38,22c.27-1.45,1.38-3.24,4.27-4.74,2.28,2.11,5.93,4.6,9,4.5l.07,1.75h-.05v.85c.78-4,1.8-6.82-.41-9.63-2.59-3.31-7.16-3.77-9.93,0A2.89,2.89,0,0,0,8,16C6.55,18,7.1,20.31,7.38,22ZM12,31.49a3.16,3.16,0,0,0,4,0c3.37-2.7,2.93-2.42,2.93-8.16-3.26-.62-6.35-3-7.53-4-.82.55-2.36,1.78-2.36,3.36v4.6C9.05,29.39,10.8,30.5,12,31.49ZM2,44.18a36.84,36.84,0,0,0,14.46,7.59c.7-3.37,1.21-8.89,6.53-13.43a10.55,10.55,0,0,0-2.2-1.65L14,41.34,7.14,36.72C4.82,38.19,3,41.34,2,44.18Zm51.38,8.28-.91-5A15.87,15.87,0,0,0,45,38l-9.14,6.28L26.56,38c-7,3.82-7.73,10.9-8.42,14.25A80.22,80.22,0,0,0,53.37,52.46Zm16.84-8.09c-.94-2.88-2.83-6.14-5.21-7.65l-6.86,4.62-6.78-4.65a10.72,10.72,0,0,0-2.47,1.9,18.26,18.26,0,0,1,5.28,8.48l.89,5A38.18,38.18,0,0,0,70.21,44.37Z" fill="#8e49bc"/><path d="M14.15,55.32,13.62,57c12.58,4,29.75,4.09,42.23.85l-.44-1.69C43.32,59.28,26.49,59.21,14.15,55.32Z" fill="#8e49bc"/><path d="M57.6,55.53l.51,1.67c.78-.24,1.56-.49,2.31-.76l-.58-1.64C59.12,55.05,58.36,55.3,57.6,55.53Z" fill="#8e49bc"/><path d="M26.11,23.74H24.37V11.39a7.31,7.31,0,0,1,5-7L33,3.23V0l7.68,1.51a8.29,8.29,0,0,1,6.44,6c.41,1.5.31,1.08.31,16.2H45.69v-14a6.64,6.64,0,0,0-5.34-6.54l-5.59-1.1V4.5L30,6.06a5.58,5.58,0,0,0-3.84,5.33Z" fill="#8e49bc"/></svg>