<svg xmlns="http://www.w3.org/2000/svg" viewBox="0 0 145.9 145.92"><title>Attract</title><rect x="137.93" y="96.63" width="2.98" height="12.96" fill="#d9dee2"/><rect x="137.93" y="96.63" width="2.98" height="12.96" transform="translate(242.53 -36.32) rotate(90)" fill="#d9dee2"/><rect x="138.86" y="36.19" width="1.73" height="4.05" transform="translate(67.95 -87.61) rotate(45)" fill="#d9dee2"/><rect x="134.38" y="40.68" width="1.73" height="4.05" transform="translate(69.8 -83.12) rotate(45)" fill="#d9dee2"/><rect x="138.86" y="40.68" width="1.73" height="4.05" transform="translate(268.73 -25.91) rotate(135)" fill="#d9dee2"/><rect x="134.38" y="36.19" width="1.73" height="4.05" transform="translate(257.89 -30.4) rotate(135)" fill="#d9dee2"/><rect x="7.48" y="110.6" width="1.73" height="4.05" transform="translate(82.09 27.08) rotate(45)" fill="#d9dee2"/><rect x="2.99" y="115.09" width="1.73" height="4.05" transform="translate(83.94 31.57) rotate(45)" fill="#d9dee2"/><rect x="7.48" y="115.09" width="1.73" height="4.05" transform="translate(97.07 194.03) rotate(135)" fill="#d9dee2"/><rect x="2.99" y="110.6" width="1.73" height="4.05" transform="translate(86.23 189.54) rotate(135)" fill="#d9dee2"/><rect x="17.94" y="25.63" width="2.98" height="9" fill="#d9dee2"/><rect x="17.94" y="25.63" width="2.98" height="9" transform="translate(49.56 10.69) rotate(90)" fill="#d9dee2"/><path d="M46,22.44a6.82,6.82,0,1,1,6.81-6.81A6.82,6.82,0,0,1,46,22.44Zm0-12.13a5.32,5.32,0,1,0,5.31,5.32A5.32,5.32,0,0,0,46,10.31Z" fill="#d9dee2"/><path d="M84.1,5.59a2.8,2.8,0,1,1,2.79-2.8A2.8,2.8,0,0,1,84.1,5.59ZM84.1,1a1.8,1.8,0,1,0,1.79,1.79A1.79,1.79,0,0,0,84.1,1Z" fill="#d9dee2"/><path d="M92,141.58a2.9,2.9,0,1,1,2.89-2.9A2.9,2.9,0,0,1,92,141.58ZM92,137a1.7,1.7,0,1,0,1.69,1.69A1.69,1.69,0,0,0,92,137Z" fill="#d9dee2"/><path d="M2.85,96.3A2.85,2.85,0,1,1,5.7,93.45,2.86,2.86,0,0,1,2.85,96.3Zm0-4.5A1.65,1.65,0,1,0,4.5,93.45,1.65,1.65,0,0,0,2.85,91.8Z" fill="#d9dee2"/><path d="M65,145.92a4.13,4.13,0,1,1,4.13-4.13A4.13,4.13,0,0,1,65,145.92Zm0-6.75a2.63,2.63,0,1,0,2.63,2.62A2.62,2.62,0,0,0,65,139.17Z" fill="#d9dee2"/><path d="M70.14,119.2c-17.06,0-30.93-14.81-30.93-33V57.06H56.77V85c0,7.93,6,14.39,13.37,14.39S83.51,93,83.51,85v-28h17.56V86.19C101.07,104.39,87.19,119.2,70.14,119.2ZM86,59.5v16H98.63v-16Zm-44.3,0v16H54.33v-16Zm57,26.69V77.94H86V85c0,8.84-6.44,16.1-14.59,16.76v2.1H68.92v-2.1c-8.15-.66-14.59-7.92-14.59-16.76V77.94H41.65v8.25c0,16.42,12.12,29.85,27.27,30.54v-3.07h2.44v3.07C86.5,116,98.63,102.61,98.63,86.19Zm-52.44-15h2.44V68.87H51V66.42H48.63V64.05H46.19v2.37H43.82v2.45h2.37Zm49.89-5H88.35v2.44h7.73ZM68.92,110.41h2.44v-3.26H68.92Z" fill="#50d6ef"/><path d="M89.67,117.34l1.39,2a35.9,35.9,0,0,1-3.18,2l-1.18-2.14A34.09,34.09,0,0,0,89.67,117.34Z" fill="#954cc0"/><path d="M105.14,74.84V87a37,37,0,0,1-12.9,28.35l1.58,1.87A39.4,39.4,0,0,0,107.58,87V74.84Z" fill="#954cc0"/><rect x="41.51" y="47.97" width="2.44" height="6.51" fill="#954cc0"/><rect x="51.82" y="47.97" width="2.44" height="6.51" fill="#954cc0"/><rect x="46.8" y="40.38" width="2.44" height="14.11" fill="#954cc0"/><rect x="85.84" y="47.97" width="2.44" height="6.51" fill="#954cc0"/><rect x="96.15" y="47.97" width="2.44" height="6.51" fill="#954cc0"/><rect x="91.13" y="40.38" width="2.44" height="14.11" fill="#954cc0"/></svg>