<svg xmlns="http://www.w3.org/2000/svg" viewBox="0 0 24.21 21"><title>chat</title><path d="M22.87,16.94a3.17,3.17,0,0,0-.5,1.82l.16,1.69c.06.54-.26.72-.7.37l-1.19-.92a2.28,2.28,0,0,0-1.78-.33,7.82,7.82,0,0,1-1.91.25c-4,0-7.26-2.87-7.26-6.41S12.94,7,17,7s7.26,2.87,7.26,6.41A7.33,7.33,0,0,1,22.87,16.94ZM7.2,13.63a8.48,8.48,0,0,0,.41,2.57,3.19,3.19,0,0,1-1-.24,3.62,3.62,0,0,0-2.34.25L2.21,17.34c-.6.33-.94.05-.74-.62L2,14.89a3,3,0,0,0-.36-2.26A9.53,9.53,0,0,1,0,8.14C0,3.64,4,0,8.92,0a9,9,0,0,1,8,4.65H16.9c-5.25,0-9.7,4-9.7,9Z" fill="#c3c5d9"/></svg>