<svg xmlns="http://www.w3.org/2000/svg" viewBox="0 0 145.9 145.92"><title>Engage</title><rect x="137.93" y="96.63" width="2.98" height="12.96" fill="#d9dee2"/><rect x="137.93" y="96.62" width="2.98" height="12.96" transform="translate(242.53 -36.32) rotate(90)" fill="#d9dee2"/><rect x="138.86" y="36.19" width="1.73" height="4.05" transform="translate(67.95 -87.61) rotate(45)" fill="#d9dee2"/><rect x="134.38" y="40.68" width="1.73" height="4.05" transform="translate(69.8 -83.12) rotate(45)" fill="#d9dee2"/><rect x="138.86" y="40.68" width="1.73" height="4.05" transform="translate(268.73 -25.91) rotate(135)" fill="#d9dee2"/><rect x="134.38" y="36.19" width="1.73" height="4.05" transform="translate(257.89 -30.4) rotate(135)" fill="#d9dee2"/><rect x="7.48" y="110.6" width="1.73" height="4.05" transform="translate(82.09 27.08) rotate(45)" fill="#d9dee2"/><rect x="2.99" y="115.09" width="1.73" height="4.05" transform="translate(83.94 31.57) rotate(45)" fill="#d9dee2"/><rect x="7.48" y="115.09" width="1.73" height="4.05" transform="translate(97.07 194.03) rotate(135)" fill="#d9dee2"/><rect x="2.99" y="110.6" width="1.73" height="4.05" transform="translate(86.23 189.54) rotate(135)" fill="#d9dee2"/><rect x="17.94" y="25.63" width="2.98" height="9" fill="#d9dee2"/><rect x="17.94" y="25.63" width="2.98" height="9" transform="translate(49.56 10.69) rotate(90)" fill="#d9dee2"/><path d="M46,22.44a6.82,6.82,0,1,1,6.81-6.81A6.82,6.82,0,0,1,46,22.44Zm0-12.13a5.32,5.32,0,1,0,5.31,5.32A5.32,5.32,0,0,0,46,10.31Z" fill="#d9dee2"/><path d="M84.1,5.59a2.8,2.8,0,1,1,2.79-2.8A2.8,2.8,0,0,1,84.1,5.59ZM84.1,1a1.8,1.8,0,1,0,1.79,1.79A1.79,1.79,0,0,0,84.1,1Z" fill="#d9dee2"/><path d="M92,141.58a2.9,2.9,0,1,1,2.89-2.9A2.9,2.9,0,0,1,92,141.58ZM92,137a1.7,1.7,0,1,0,1.69,1.69A1.69,1.69,0,0,0,92,137Z" fill="#d9dee2"/><path d="M2.85,96.3A2.85,2.85,0,1,1,5.7,93.45,2.86,2.86,0,0,1,2.85,96.3Zm0-4.5A1.65,1.65,0,1,0,4.5,93.45,1.65,1.65,0,0,0,2.85,91.8Z" fill="#d9dee2"/><path d="M65,145.92a4.13,4.13,0,1,1,4.13-4.13A4.13,4.13,0,0,1,65,145.92Zm0-6.75a2.63,2.63,0,1,0,2.63,2.62A2.62,2.62,0,0,0,65,139.17Z" fill="#d9dee2"/><path d="M51.64,109.34v-5.41H49.42v4.91a79.87,79.87,0,0,1-8.27-2.37c1.81-6.49,3-12.29,8.1-18A22.68,22.68,0,0,0,70.63,98.94l-.2-2.21A20.42,20.42,0,0,1,50.85,86.8a25.57,25.57,0,0,1,2.06-1.71,18.73,18.73,0,0,0,18,9.15L70.64,92a16.51,16.51,0,0,1-15.88-8.17c.89-.52.81-.46,6.19-3.16v1.43h2.22V76.56a8.38,8.38,0,0,0,10.37-.12v5.92h2.22V81.28c1.91.13,7.6,1.12,15.78-4.07L88.2,65.63c.4-1.38,1.94-6.86,1.94-10.16,0-18.17-16.73-26.2-27.91-18.16-8.9-.42-15.55,7.68-15.55,18.28A77,77,0,0,0,48,66.18L44.7,76.82a29.89,29.89,0,0,0,10.6,4.23c-12.21,6.14-14.44,18.19-16.85,26.81a87,87,0,0,0,42.93,4.46l-.32-2.2A86.44,86.44,0,0,1,51.64,109.34ZM68.28,76.08c-3.32,0-5-2.38-8-5.56a15,15,0,0,1-3.61-9.67,36.25,36.25,0,0,0,7.1-9.55c2,3.32,6.61,9.3,14.71,10.8.2.46.52,1.19.86,2.08-1.42,5.32-2.9,6.25-6,9.51A7,7,0,0,1,68.28,76.08Zm-21-.26,3-9.51A74.68,74.68,0,0,1,48.9,55.59c0-8.77,5.12-16.72,14-16,4.05-3,7.31-4.07,13.15-2.47,4.42,1.21,11.89,6.43,11.89,18.35,0,2.71-1.25,7.55-2,10.15L88.94,76.2c-6.73,3.73-11,3-13.18,2.85V74.33c2.36-2.49,3.38-3.26,4.7-6.56A15.3,15.3,0,0,1,81,71.44h2.22a23.19,23.19,0,0,0-1.6-7.38l0-.07h0A40,40,0,0,0,80,60.1L79.37,60c-10.31-1.59-14.72-11.7-14.76-11.8l-1.32-3.12C62.75,47.36,62.39,53,52.22,62l1.46,1.67.89-.8c.86,6.54,3.92,9.09,6.38,11.67v3.72l-2,1A26.62,26.62,0,0,1,47.33,75.82ZM81.67,57.59l-3-.46.33-2.2,3,.46ZM67.26,47.46l2-.89c.1.22,2.48,5.5,7.71,7.63l-.84,2.06C70.11,53.79,67.37,47.72,67.26,47.46Z" fill="#50d6ef"/><path d="M103.31,82.23c-2.72-.16-5.89,1.3-9.43,4.36-5.93-5.12-9.32-4.36-9.32-4.36-12.16,0-16.13,15.25-7.78,22.67,3.29,2.93,13.78,11.92,17.13,14.79,3.35-2.88,13.84-11.86,17.12-14.79C119.4,97.46,115.37,82.23,103.31,82.23Zm6.25,21c-3.17,2.83-12.91,11.18-15.65,13.52-2.74-2.34-12.48-10.69-15.65-13.52-6.83-6.07-3.83-18.8,6.38-18.8,3.25-.2,6.88,3,9.24,5.14,2.59-2.37,5.82-5.13,9.37-5.13C113.3,84.45,116.43,97.13,109.56,103.24Z" fill="#954cc0"/></svg>