<svg xmlns="http://www.w3.org/2000/svg" viewBox="0 0 52.28 52.28"><title>how-gamiphy-wroks</title><path d="M43.65,51.39c0-.19,0-.38,0-.57a17.51,17.51,0,0,0-35,0c0,.19,0,.38,0,.57Z" fill="#d9f8fd"/><rect x="32.99" y="9.32" width="6.03" height="16.87" transform="translate(24.31 -20.65) rotate(46.81)" fill="#d8f7fc"/><rect x="12.94" y="12.48" width="6.03" height="15.88" transform="translate(41.78 22.71) rotate(133.07)" fill="#d8f7fc"/><polygon points="12.02 12.67 16.61 16.95 0.57 33.78 0.6 24.89 12.02 12.67" fill="#d8f7fc"/><polygon points="51.45 4.56 41.22 4.46 51.07 14.78 51.45 4.56 41.22 4.46 51.07 14.78 51.45 4.56" fill="#d8f7fc"/><path d="M51.26,0H35a1,1,0,0,0-.95.63,1,1,0,0,0,.23,1.11l3.82,3.82L25.28,18.43,13.4,6.55a1,1,0,0,0-1.45,0L.3,18.2A1,1,0,0,0,1,19.94a1,1,0,0,0,.73-.3L12.68,8.71,26.9,22.94a1,1,0,0,0,1.45,0,1,1,0,0,0,0-1.45l-1.63-1.62L39.58,7l5.7,5.7L34.92,23.07a1,1,0,0,0,0,1.45,1,1,0,0,0,1.44,0L46.73,14.15,50.54,18a1,1,0,0,0,1.11.22,1,1,0,0,0,.63-1V1A1,1,0,0,0,51.26,0Zm-1,14.78L37.5,2H50.24Z" fill="#5d35cd"/><path d="M33.84,27.05a1,1,0,1,0-.73.3A1,1,0,0,0,33.84,27.05Z" fill="#5d35cd"/><path d="M15.77,18.47a1,1,0,0,0-1.45,0l-14,14a1,1,0,0,0,0,1.45,1,1,0,0,0,.72.3,1,1,0,0,0,.73-.3L12.68,23l5.53,5.53a1,1,0,0,0,.72.3,1,1,0,0,0,.73-1.74l-5.54-5.54,1.65-1.65A1,1,0,0,0,15.77,18.47Z" fill="#5d35cd"/><path d="M26.14,39.51h0a1,1,0,0,0,0-2h-.05a1,1,0,0,0,0,2Z" fill="#5d35cd"/><path d="M51.26,50.24H49.47V45.66a1,1,0,0,0-.77-1L44,43.49l-1.7-4.1,2.52-4.2A1,1,0,0,0,44.61,34l-4-4a1,1,0,0,0-1.25-.15l-4.19,2.51-4.11-1.7-1.18-4.74a1,1,0,0,0-1-.78h-5.6a1,1,0,0,0-1,.78l-1.18,4.74-4.11,1.7-4.19-2.51a1,1,0,0,0-1.25.15L7.67,34a1,1,0,0,0-.16,1.24L10,39.39l-1.7,4.1L3.59,44.67a1,1,0,0,0-.78,1v4.58H1a1,1,0,1,0,0,2H51.26a1,1,0,1,0,0-2ZM4.85,46.46l4.48-1.11a1,1,0,0,0,.69-.6l2.1-5.06a1,1,0,0,0-.07-.92L9.68,34.83,12.5,32l3.95,2.37a1,1,0,0,0,.92.07l5.06-2.1a1,1,0,0,0,.6-.69l1.11-4.47h4l1.11,4.47a1,1,0,0,0,.6.69l5.06,2.1a1,1,0,0,0,.92-.07l4-2.37,2.83,2.83-2.38,3.94a1.06,1.06,0,0,0-.07.92l2.1,5.06a1,1,0,0,0,.7.6l4.47,1.11v3.78H37a11,11,0,0,0-6.93-12.05,1,1,0,0,0-1.31.59,1,1,0,0,0,.59,1.32,8.72,8.72,0,0,1,3.13,2,8.94,8.94,0,0,1,2.45,8.11H17.37A9,9,0,0,1,23,40.08a1,1,0,0,0-.72-1.91,10.75,10.75,0,0,0-3.89,2.52,11,11,0,0,0-3.08,9.55H4.85Z" fill="#5d35cd"/></svg>