<svg xmlns="http://www.w3.org/2000/svg" viewBox="0 0 173.72 38.69"><title>logo black</title><path d="M41.45,14.35H17.18a1.39,1.39,0,0,0-1.39,1.37V22.4a1.38,1.38,0,0,0,1.39,1.37h16V28.7H9.87V8.11H1.39A1.38,1.38,0,0,0,0,9.49V30.07a1.38,1.38,0,0,0,1.39,1.38H4.93V28.7H2.78V10.86H7.09V37.32a1.38,1.38,0,0,0,1.39,1.37H34.56A1.38,1.38,0,0,0,36,37.32v-4H33.17v2.64H9.87V31.45H41.45a1.39,1.39,0,0,0,1.39-1.37V15.72a1.38,1.38,0,0,0-1.39-1.37ZM40.06,28.7H36V22.4A1.38,1.38,0,0,0,34.56,21h-16V17.1H40.06V28.7Z" fill="#293248"/><path d="M9.87,2.75H31.94V8.11H12.08v2.75H33.33a1.38,1.38,0,0,0,1.39-1.37V1.37A1.38,1.38,0,0,0,33.33,0H8.48A1.38,1.38,0,0,0,7.09,1.37v4.5H9.87V2.75Z" fill="#293248"/><path d="M63.06,19.29h4.81v5.6q0,4.78-4.92,4.8T58,24.89V10.94Q58,6.16,63,6.15t4.92,4.79V14H64.45V10.94A1.35,1.35,0,0,0,63,9.39h0c-1,0-1.47.52-1.47,1.55v14c0,1,.49,1.55,1.48,1.55a1.35,1.35,0,0,0,1.5-1.55V22.54H63.06V19.29ZM80.5,11.74,78.08,29.32H74.63L78.16,6.51h4.69l3.52,22.81H82.91Zm20.32,10.4,4-15.63h3.42V29.32h-3.28V16.52L102,29.32H99.7l-3-12.8v12.8H93.38V6.51H96.8ZM116.37,6.51h3.42V29.32h-3.42Zm11.58,0h5q4.56,0,4.56,4.8v7.16A4.34,4.34,0,0,1,134.21,23a8.2,8.2,0,0,1-2.28.25h-.56v6H128V6.51Zm3.42,3.24V20h.79a3.45,3.45,0,0,0,1-.09,1.42,1.42,0,0,0,.93-1.46V11.31c0-1-.49-1.56-1.48-1.56ZM145,6.51h3.42V20h3V6.51h3.42V29.32h-3.42v-6h-3v6H145Zm20.46,0,2.34,11.79L170.1,6.51h3.62l-4.24,16.81v6h-3.42v-6L161.81,6.51Z" fill="#293248"/></svg>