<svg xmlns="http://www.w3.org/2000/svg" viewBox="0 0 145.9 145.92"><title>Retain</title><rect x="137.93" y="96.63" width="2.98" height="12.96" fill="#d9dee2"/><rect x="137.93" y="96.63" width="2.98" height="12.96" transform="translate(242.53 -36.32) rotate(90)" fill="#d9dee2"/><rect x="138.86" y="36.19" width="1.73" height="4.05" transform="translate(67.95 -87.61) rotate(45)" fill="#d9dee2"/><rect x="134.38" y="40.68" width="1.73" height="4.05" transform="translate(69.8 -83.12) rotate(45)" fill="#d9dee2"/><rect x="138.86" y="40.68" width="1.73" height="4.05" transform="translate(268.73 -25.91) rotate(135)" fill="#d9dee2"/><rect x="134.38" y="36.19" width="1.73" height="4.05" transform="translate(257.89 -30.4) rotate(135)" fill="#d9dee2"/><rect x="7.48" y="110.6" width="1.73" height="4.05" transform="translate(82.09 27.08) rotate(45)" fill="#d9dee2"/><rect x="2.99" y="115.09" width="1.73" height="4.05" transform="translate(83.94 31.57) rotate(45)" fill="#d9dee2"/><rect x="7.48" y="115.09" width="1.73" height="4.05" transform="translate(97.07 194.03) rotate(135)" fill="#d9dee2"/><rect x="2.99" y="110.6" width="1.73" height="4.05" transform="translate(86.23 189.54) rotate(135)" fill="#d9dee2"/><rect x="17.94" y="25.63" width="2.98" height="9" fill="#d9dee2"/><rect x="17.94" y="25.63" width="2.98" height="9" transform="translate(49.56 10.69) rotate(90)" fill="#d9dee2"/><path d="M46,22.44a6.82,6.82,0,1,1,6.81-6.81A6.82,6.82,0,0,1,46,22.44Zm0-12.13a5.32,5.32,0,1,0,5.31,5.32A5.32,5.32,0,0,0,46,10.31Z" fill="#d9dee2"/><path d="M84.1,5.59a2.8,2.8,0,1,1,2.79-2.8A2.8,2.8,0,0,1,84.1,5.59ZM84.1,1a1.8,1.8,0,1,0,1.79,1.79A1.79,1.79,0,0,0,84.1,1Z" fill="#d9dee2"/><path d="M92,141.58a2.9,2.9,0,1,1,2.89-2.9A2.9,2.9,0,0,1,92,141.58ZM92,137a1.7,1.7,0,1,0,1.69,1.69A1.69,1.69,0,0,0,92,137Z" fill="#d9dee2"/><path d="M2.85,96.3A2.85,2.85,0,1,1,5.7,93.45,2.86,2.86,0,0,1,2.85,96.3Zm0-4.5A1.65,1.65,0,1,0,4.5,93.45,1.65,1.65,0,0,0,2.85,91.8Z" fill="#d9dee2"/><path d="M65,145.92a4.13,4.13,0,1,1,4.13-4.13A4.13,4.13,0,0,1,65,145.92Zm0-6.75a2.63,2.63,0,1,0,2.63,2.62A2.62,2.62,0,0,0,65,139.17Z" fill="#d9dee2"/><path d="M116.92,93.3C105.17,103.94,88.5,107,72.64,107,56.57,107,39.51,104,27.8,93c3.28-10.86,8.81-12.33,11.89-13.72V77.09c-3.33-2.66-2.88-5.74-2.88-7.81l-1.31.23c-1-6-2.17-9.62.45-13.23a5.78,5.78,0,0,1,3.44-2.35c4.47-5.16,11.42-4,15.13.71,3.53,4.5,1.85,9,.67,14.92l-1.86-.37c0,2.48.43,5.31-2.87,8v2.19c3.1,1.41,5,2.08,7.43,4.5,1.74-1.19,2.65-1.52,6.93-3.46V76C61.29,72.63,62,69.52,62,62.79l-.51,0,.21-2.14c8.08.79,9.41-5,10.15-7l1.77,3.94c2.08-1.54,2.22-4.9,2.22-4.94l.06-1.81,1.56.92c.25.15,6.08,3.68,6.08,10.15,0,8.39.9,11.13-4.31,15.3v3.23c4.13,1.87,5.29,2.29,7.29,3.73,2.47-2.62,4.55-3.34,7.79-4.81V77.15c-3.32-2.66-2.87-5.51-2.87-8l-1.93.38-1.08-5.48c-2.72-11,10-18,16.88-10.15a5.78,5.78,0,0,1,3.44,2.35c2.62,3.61,1.46,7.29.45,13.23l-1.25-.21c0,2.18.42,5.15-2.87,7.79v2.25C108.11,80.74,113.78,82.32,116.92,93.3ZM94.66,81.5l-1.21.55,6.13,4.21,6.24-4.2-1.25-.56h-1.69V78.77a6,6,0,0,1-6.47,0V81.5Zm7.88-22.4c3.44,1.78,4.85,3.91,5.23,5.67.27-1.57,1-4.65-.81-7.22a3.51,3.51,0,0,0-2.87-1.61c-3.59-4.89-9.35-3.69-12.26,0s-1.4,7.37-.44,12.24v-1.4h-.06l.08-2.15C95.21,64.78,99.75,61.68,102.54,59.1ZM97.15,76.7a3.9,3.9,0,0,0,4.92,0c4.28-3.43,3.68-3,3.68-10.83,0-1.92-1.91-3.46-2.92-4.14-1.46,1.23-5.27,4.14-9.29,4.9v5C93.54,74.14,95.52,75.4,97.15,76.7ZM66,82.22l-3.14,1.42L72,89.84l9-6.22L78,82.22H77V78.85a7.78,7.78,0,0,1-9.26-.4l-.8-.63v4.4Zm3.13-5.45a5.65,5.65,0,0,0,7.11,0c2-1.61,5.11-3.58,5.11-7.24V61.86a9.89,9.89,0,0,0-3.67-7.27c-1.06,4.54-3.82,5.3-5.16,5.82l-.73-1.63a10.32,10.32,0,0,1-7.67,4C64.1,72.49,63.34,72.14,69.11,76.77Zm-29,4.73-1.25.56,6.23,4.2,6.14-4.21L50,81.5H48.3V78.81a6,6,0,0,1-6.46,0V81.5ZM36.91,65c.33-1.79,1.7-4,5.26-5.85,2.82,2.6,7.33,5.68,11.14,5.56l.07,2.15h-.05v1.06c1-4.9,2.22-8.42-.51-11.9-3.2-4.08-8.83-4.65-12.26,0a3.52,3.52,0,0,0-2.87,1.61C35.88,60,36.56,62.9,36.91,65ZM42.65,76.7a3.87,3.87,0,0,0,4.91,0c4.16-3.33,3.62-3,3.62-10.07-4-.76-7.84-3.68-9.29-4.9-1,.67-2.92,2.2-2.92,4.14v5.69C39,74.11,41.13,75.49,42.65,76.7ZM30.26,92.37a45.34,45.34,0,0,0,17.84,9.37c.86-4.16,1.5-11,8.07-16.58a13.25,13.25,0,0,0-2.72-2l-8.37,5.75-8.47-5.71C33.74,85,31.44,88.87,30.26,92.37Zm63.42,10.22-1.11-6.21a19.64,19.64,0,0,0-9.24-11.69L72,92.44,60.59,84.72C51.93,89.43,51,98.17,50.19,102.3,63.09,105.6,80.5,105.74,93.68,102.59Zm20.79-10C113.32,89.05,111,85,108,83.16l-8.47,5.71L91.2,83.12a13.39,13.39,0,0,0-3,2.35,22.65,22.65,0,0,1,6.52,10.47l1.09,6.11C103.31,100,109.62,96.83,114.47,92.61Z" fill="#50d6ef"/><path d="M45.26,106.12l-.65,2.06c15.54,4.89,36.73,5,52.14,1l-.54-2.09C81.28,111,60.5,110.93,45.26,106.12Z" fill="#954cc0"/><path d="M98.91,106.38l.63,2.06c1-.29,1.92-.6,2.85-.93l-.72-2C100.78,105.79,99.85,106.1,98.91,106.38Z" fill="#954cc0"/><path d="M60,67.14H57.88V51.89a9,9,0,0,1,6.23-8.63l4.44-1.44v-4L78,39.69a10.26,10.26,0,0,1,8,7.44c.5,1.86.37,1.33.37,20H84.21V49.88a8.21,8.21,0,0,0-6.6-8.08l-6.9-1.35v2.93l-5.94,1.93A6.89,6.89,0,0,0,60,51.89Z" fill="#50d6ef"/></svg>