<svg xmlns="http://www.w3.org/2000/svg" viewBox="0 0 16.14 13.22"><title>twitter</title><path d="M7.84,3.52l0,.57L7.29,4A9.51,9.51,0,0,1,1.74,1.31L1,.55l-.2.56a3.37,3.37,0,0,0,.72,3.46c.47.49.36.56-.44.27C.77,4.74.52,4.67.5,4.71A4.21,4.21,0,0,0,.92,6.27a3.68,3.68,0,0,0,1.6,1.49L3.09,8l-.68,0c-.65,0-.67,0-.6.25A3.5,3.5,0,0,0,4,10.22l.72.24-.63.37A6.65,6.65,0,0,1,1,11.7a3.74,3.74,0,0,0-1,.09,8.83,8.83,0,0,0,2.25,1A9.9,9.9,0,0,0,9.9,12a10.17,10.17,0,0,0,3.89-4.52,12.24,12.24,0,0,0,.79-3.5c0-.54,0-.61.69-1.25a9.2,9.2,0,0,0,.81-.9c.12-.22.11-.22-.49,0-1,.35-1.13.31-.64-.22a3.41,3.41,0,0,0,.8-1.25s-.18,0-.38.13a6.58,6.58,0,0,1-1,.4l-.63.2L13.15.62a4.73,4.73,0,0,0-1-.51,4,4,0,0,0-2,.05A3.32,3.32,0,0,0,7.84,3.52Z" fill="#9f9f9f" fill-rule="evenodd"/></svg>