<svg xmlns="http://www.w3.org/2000/svg" viewBox="0 0 31.32 22.9"><title>video</title><path d="M31.28,8.91A30.47,30.47,0,0,0,30.76,4,4.48,4.48,0,0,0,27,.43,107.56,107.56,0,0,0,15.65,0h-.9C2.63,0,.76,0,.17,6.56a69.25,69.25,0,0,0,0,9.77l0,.22c.14,1.64.47,5.5,4.17,5.92,2.53.28,6.91.43,11.29.43s8.76-.15,11.3-.43C31.51,22,31.41,16.19,31.28,8.91Z" fill="#f60000"/><path d="M19.38,9.27C18.33,8.63,16.74,7.66,14.21,6a1.48,1.48,0,0,0-2.29,1.25v8.35A1.47,1.47,0,0,0,12.73,17a1.56,1.56,0,0,0,.69.17,1.29,1.29,0,0,0,.78-.24l6.62-4.17a1.4,1.4,0,0,0,.7-1.27C21.52,10.57,21.2,10.37,19.38,9.27Z" fill="#fff"/></svg>